<?xml version="1.0" encoding="UTF-8" standalone="no"?>
<!DOCTYPE svg PUBLIC "-//W3C//DTD SVG 1.1//EN" "http://www.w3.org/Graphics/SVG/1.1/DTD/svg11.dtd">
<!-- Generated by graphviz version 2.40.1 (20161225.0304)
 -->
<!-- Title: UML Pages: 1 -->
<svg xmlns="http://www.w3.org/2000/svg" xmlns:xlink="http://www.w3.org/1999/xlink" width="2796pt" height="1150pt" viewBox="0.00 0.00 2796.34 1149.50">
  <g id="graph0" class="graph" transform="scale(1 1) rotate(0) translate(4 1145.5)">
    <title>UML</title>
    <polygon fill="#ffffff" stroke="transparent" points="-4,4 -4,-1145.5 2792.3448,-1145.5 2792.3448,4 -4,4"/>
    <!-- Student -->
    <g id="node1" class="node">
      <title>Student</title>
      <polygon fill="none" stroke="#000000" points="0,-406.5 0,-548.9 263.8106,-548.9 263.8106,-406.5 0,-406.5"/>
      <text text-anchor="middle" x="32.1241" y="-473.5" font-family="Helvetica,sans-Serif" font-size="14.00" fill="#000000">Student</text>
      <polyline fill="none" stroke="#000000" points="64.2482,-406.5 64.2482,-548.9 "/>
      <text text-anchor="start" x="72.2482" y="-532.3" font-family="Helvetica,sans-Serif" font-size="14.00" fill="#000000">SR_NO : Number</text>
      <text text-anchor="start" x="72.2482" y="-515.5" font-family="Helvetica,sans-Serif" font-size="14.00" fill="#000000"> STUDENT_ROLLNO : String</text>
      <text text-anchor="start" x="72.2482" y="-498.7" font-family="Helvetica,sans-Serif" font-size="14.00" fill="#000000"> FULL_NAME : String</text>
      <text text-anchor="start" x="72.2482" y="-481.9" font-family="Helvetica,sans-Serif" font-size="14.00" fill="#000000"> FATHER_NAME : String</text>
      <text text-anchor="start" x="72.2482" y="-465.1" font-family="Helvetica,sans-Serif" font-size="14.00" fill="#000000"> GENDER : String</text>
      <text text-anchor="start" x="72.2482" y="-448.3" font-family="Helvetica,sans-Serif" font-size="14.00" fill="#000000"> EMAIL : String</text>
      <text text-anchor="start" x="72.2482" y="-431.5" font-family="Helvetica,sans-Serif" font-size="14.00" fill="#000000"> PHONE : String</text>
      <text text-anchor="start" x="72.2482" y="-414.7" font-family="Helvetica,sans-Serif" font-size="14.00" fill="#000000"> CITY : String</text>
    </g>
    <!-- Department -->
    <g id="node2" class="node">
      <title>Department</title>
      <polygon fill="none" stroke="#000000" points="412.8548,-728.5 412.8548,-786.9 655.6542,-786.9 655.6542,-728.5 412.8548,-728.5"/>
      <text text-anchor="middle" x="457.4158" y="-753.5" font-family="Helvetica,sans-Serif" font-size="14.00" fill="#000000">Department</text>
      <polyline fill="none" stroke="#000000" points="501.9768,-728.5 501.9768,-786.9 "/>
      <text text-anchor="start" x="509.9768" y="-770.3" font-family="Helvetica,sans-Serif" font-size="14.00" fill="#000000">DEPT_ID : Number</text>
      <text text-anchor="start" x="509.9768" y="-753.5" font-family="Helvetica,sans-Serif" font-size="14.00" fill="#000000"> DEPT_NAME : String</text>
      <text text-anchor="start" x="509.9768" y="-736.7" font-family="Helvetica,sans-Serif" font-size="14.00" fill="#000000"> BUILDING : String</text>
    </g>
    <!-- Student&#45;&gt;Department -->
    <g id="edge1" class="edge">
      <title>Student-&gt;Department</title>
      <path fill="none" stroke="#000000" d="M234.476,-549.0803C314.194,-604.5571 421.356,-679.1325 483.605,-722.4524"/>
      <polygon fill="#000000" stroke="#000000" points="481.8757,-725.513 492.083,-728.3523 485.8742,-719.7674 481.8757,-725.513"/>
      <text text-anchor="middle" x="326.8639" y="-621.9" font-family="Times,serif" font-size="14.00" fill="#000000">N..1</text>
    </g>
    <!-- Enrollment -->
    <g id="node9" class="node">
      <title>Enrollment</title>
      <polygon fill="none" stroke="#000000" points="2013.293,-711.9 2013.293,-753.5 2298.0868,-753.5 2298.0868,-711.9 2013.293,-711.9"/>
      <text text-anchor="middle" x="2054.739" y="-728.5" font-family="Helvetica,sans-Serif" font-size="14.00" fill="#000000">Enrollment</text>
      <polyline fill="none" stroke="#000000" points="2096.185,-711.9 2096.185,-753.5 "/>
      <text text-anchor="start" x="2104.185" y="-736.9" font-family="Helvetica,sans-Serif" font-size="14.00" fill="#000000">ENROLLMENT_ID : Number</text>
      <text text-anchor="start" x="2104.185" y="-720.1" font-family="Helvetica,sans-Serif" font-size="14.00" fill="#000000"> ENROLLMENT_DATE : Date</text>
    </g>
    <!-- Student&#45;&gt;Enrollment -->
    <g id="edge8" class="edge">
      <title>Student-&gt;Enrollment</title>
      <path fill="none" stroke="#000000" d="M263.9832,-505.9495C342.1844,-520.2825 443.4217,-534.7 534.2545,-534.7 534.2545,-534.7 534.2545,-534.7 1754.495,-534.7 1906.8204,-534.7 2061.2066,-650.897 2125.1034,-705.2624"/>
      <polygon fill="#000000" stroke="#000000" points="2122.9355,-708.0144 2132.7982,-711.8848 2127.5018,-702.7088 2122.9355,-708.0144"/>
      <text text-anchor="middle" x="1181.3148" y="-538.9" font-family="Times,serif" font-size="14.00" fill="#000000">1..*</text>
    </g>
    <!-- ExamResult -->
    <g id="node12" class="node">
      <title>ExamResult</title>
      <polygon fill="none" stroke="#000000" points="411.3057,-44.9 411.3057,-86.5 657.2033,-86.5 657.2033,-44.9 411.3057,-44.9"/>
      <text text-anchor="middle" x="457.0301" y="-61.5" font-family="Helvetica,sans-Serif" font-size="14.00" fill="#000000">ExamResult</text>
      <polyline fill="none" stroke="#000000" points="502.7545,-44.9 502.7545,-86.5 "/>
      <text text-anchor="start" x="510.7545" y="-69.9" font-family="Helvetica,sans-Serif" font-size="14.00" fill="#000000">RESULT_ID : Number</text>
      <text text-anchor="start" x="510.7545" y="-53.1" font-family="Helvetica,sans-Serif" font-size="14.00" fill="#000000"> MARKS : Number</text>
    </g>
    <!-- Student&#45;&gt;ExamResult -->
    <g id="edge14" class="edge">
      <title>Student-&gt;ExamResult</title>
      <path fill="none" stroke="#000000" d="M174.6864,-406.4056C220.8872,-333.8172 300.0524,-221.3492 389.9172,-144.7 415.3999,-122.9649 447.8166,-104.568 475.4707,-91.0106"/>
      <polygon fill="#000000" stroke="#000000" points="477.1516,-94.0861 484.6495,-86.6006 474.1201,-87.7765 477.1516,-94.0861"/>
      <text text-anchor="middle" x="326.8639" y="-221.9" font-family="Times,serif" font-size="14.00" fill="#000000">1..*</text>
    </g>
    <!-- Fee -->
    <g id="node14" class="node">
      <title>Fee</title>
      <polygon fill="none" stroke="#000000" points="443.1998,-322.7 443.1998,-414.7 625.3092,-414.7 625.3092,-322.7 443.1998,-322.7"/>
      <text text-anchor="middle" x="463.2587" y="-364.5" font-family="Helvetica,sans-Serif" font-size="14.00" fill="#000000">Fee</text>
      <polyline fill="none" stroke="#000000" points="483.3176,-322.7 483.3176,-414.7 "/>
      <text text-anchor="start" x="491.3176" y="-398.1" font-family="Helvetica,sans-Serif" font-size="14.00" fill="#000000">FEE_ID : Number</text>
      <text text-anchor="start" x="491.3176" y="-381.3" font-family="Helvetica,sans-Serif" font-size="14.00" fill="#000000"> FEE_TYPE : String</text>
      <text text-anchor="start" x="491.3176" y="-364.5" font-family="Helvetica,sans-Serif" font-size="14.00" fill="#000000"> AMOUNT : Number</text>
      <text text-anchor="start" x="491.3176" y="-347.7" font-family="Helvetica,sans-Serif" font-size="14.00" fill="#000000"> DUE_DATE : Date</text>
      <text text-anchor="start" x="491.3176" y="-330.9" font-family="Helvetica,sans-Serif" font-size="14.00" fill="#000000"> STATUS : String</text>
    </g>
    <!-- Student&#45;&gt;Fee -->
    <g id="edge15" class="edge">
      <title>Student-&gt;Fee</title>
      <path fill="none" stroke="#000000" d="M263.928,-441.9339C319.0297,-427.0063 382.0116,-409.944 433.3128,-396.046"/>
      <polygon fill="#000000" stroke="#000000" points="434.3441,-399.3929 443.081,-393.3997 432.5137,-392.6364 434.3441,-399.3929"/>
      <text text-anchor="middle" x="326.8639" y="-430.9" font-family="Times,serif" font-size="14.00" fill="#000000">1..*</text>
    </g>
    <!-- InterMarks -->
    <g id="node16" class="node">
      <title>InterMarks</title>
      <polygon fill="none" stroke="#000000" points="389.9172,-184.5 389.9172,-242.9 678.5918,-242.9 678.5918,-184.5 389.9172,-184.5"/>
      <text text-anchor="middle" x="430.9726" y="-209.5" font-family="Helvetica,sans-Serif" font-size="14.00" fill="#000000">InterMarks</text>
      <polyline fill="none" stroke="#000000" points="472.028,-184.5 472.028,-242.9 "/>
      <text text-anchor="start" x="480.028" y="-226.3" font-family="Helvetica,sans-Serif" font-size="14.00" fill="#000000">OBTAINED_MARKS : Number</text>
      <text text-anchor="start" x="480.028" y="-209.5" font-family="Helvetica,sans-Serif" font-size="14.00" fill="#000000"> TOTAL_MARKS : Number</text>
      <text text-anchor="start" x="480.028" y="-192.7" font-family="Helvetica,sans-Serif" font-size="14.00" fill="#000000"> QUALIFICATION : String</text>
    </g>
    <!-- Student&#45;&gt;InterMarks -->
    <g id="edge17" class="edge">
      <title>Student-&gt;InterMarks</title>
      <path fill="none" stroke="#000000" d="M217.1771,-406.3615C266.03,-367.2835 329.4774,-319.4705 389.9172,-282.7 410.3255,-270.284 433.3127,-258.4224 454.8424,-248.1441"/>
      <polygon fill="#000000" stroke="#000000" points="455.0888,-248.0282 458.8147,-241.8543 465.9468,-242.919 462.2208,-249.093 455.0888,-248.0282"/>
      <text text-anchor="middle" x="326.8639" y="-335.9" font-family="Times,serif" font-size="14.00" fill="#000000">1..1</text>
    </g>
    <!-- Users -->
    <g id="node17" class="node">
      <title>Users</title>
      <polygon fill="none" stroke="#000000" points="409.7517,-871.7 409.7517,-963.7 658.7573,-963.7 658.7573,-871.7 409.7517,-871.7"/>
      <text text-anchor="middle" x="436.0266" y="-913.5" font-family="Helvetica,sans-Serif" font-size="14.00" fill="#000000">Users</text>
      <polyline fill="none" stroke="#000000" points="462.3015,-871.7 462.3015,-963.7 "/>
      <text text-anchor="start" x="470.3015" y="-947.1" font-family="Helvetica,sans-Serif" font-size="14.00" fill="#000000">USER_ID : Number</text>
      <text text-anchor="start" x="470.3015" y="-930.3" font-family="Helvetica,sans-Serif" font-size="14.00" fill="#000000"> USERNAME : String</text>
      <text text-anchor="start" x="470.3015" y="-913.5" font-family="Helvetica,sans-Serif" font-size="14.00" fill="#000000"> PASSWORD_HASH : String</text>
      <text text-anchor="start" x="470.3015" y="-896.7" font-family="Helvetica,sans-Serif" font-size="14.00" fill="#000000"> ROLE : String</text>
      <text text-anchor="start" x="470.3015" y="-879.9" font-family="Helvetica,sans-Serif" font-size="14.00" fill="#000000"> STATUS : String</text>
    </g>
    <!-- Student&#45;&gt;Users -->
    <g id="edge18" class="edge">
      <title>Student-&gt;Users</title>
      <path fill="none" stroke="#000000" d="M173.4703,-548.9784C219.6772,-624.1278 299.7747,-743.0004 389.9172,-826.7 405.2146,-840.9041 423.0271,-854.1836 440.8108,-865.9713"/>
      <polygon fill="#000000" stroke="#000000" points="439.2354,-869.1215 449.5276,-871.6356 443.0496,-863.2519 439.2354,-869.1215"/>
      <text text-anchor="middle" x="326.8639" y="-770.9" font-family="Times,serif" font-size="14.00" fill="#000000">1..1</text>
    </g>
    <!-- Program -->
    <g id="node3" class="node">
      <title>Program</title>
      <polygon fill="none" stroke="#000000" points="801.5918,-800.5 801.5918,-858.9 1119.8148,-858.9 1119.8148,-800.5 801.5918,-800.5"/>
      <text text-anchor="middle" x="836.4249" y="-825.5" font-family="Helvetica,sans-Serif" font-size="14.00" fill="#000000">Program</text>
      <polyline fill="none" stroke="#000000" points="871.258,-800.5 871.258,-858.9 "/>
      <text text-anchor="start" x="879.258" y="-842.3" font-family="Helvetica,sans-Serif" font-size="14.00" fill="#000000">PROGRAM_ID : Number</text>
      <text text-anchor="start" x="879.258" y="-825.5" font-family="Helvetica,sans-Serif" font-size="14.00" fill="#000000"> PROGRAM_NAME : String</text>
      <text text-anchor="start" x="879.258" y="-808.7" font-family="Helvetica,sans-Serif" font-size="14.00" fill="#000000"> DURATION_SEMESTERS : Number</text>
    </g>
    <!-- Department&#45;&gt;Program -->
    <g id="edge2" class="edge">
      <title>Department-&gt;Program</title>
      <path fill="none" stroke="#000000" d="M655.8869,-778.236C698.0884,-785.3611 746.1999,-793.4841 791.5334,-801.138"/>
      <polygon fill="#000000" stroke="#000000" points="791.021,-804.6009 801.4642,-802.8147 792.1865,-797.6986 791.021,-804.6009"/>
      <text text-anchor="middle" x="740.0918" y="-797.9" font-family="Times,serif" font-size="14.00" fill="#000000">1..*</text>
    </g>
    <!-- Section -->
    <g id="node4" class="node">
      <title>Section</title>
      <polygon fill="none" stroke="#000000" points="1248.6325,-808.9 1248.6325,-850.5 1489.8793,-850.5 1489.8793,-808.9 1248.6325,-808.9"/>
      <text text-anchor="middle" x="1279.9733" y="-825.5" font-family="Helvetica,sans-Serif" font-size="14.00" fill="#000000">Section</text>
      <polyline fill="none" stroke="#000000" points="1311.3141,-808.9 1311.3141,-850.5 "/>
      <text text-anchor="start" x="1319.3141" y="-833.9" font-family="Helvetica,sans-Serif" font-size="14.00" fill="#000000">SECTION_ID : Number</text>
      <text text-anchor="start" x="1319.3141" y="-817.1" font-family="Helvetica,sans-Serif" font-size="14.00" fill="#000000"> SECTION_NAME : String</text>
    </g>
    <!-- Program&#45;&gt;Section -->
    <g id="edge3" class="edge">
      <title>Program-&gt;Section</title>
      <path fill="none" stroke="#000000" d="M1119.8303,-829.7C1159.1138,-829.7 1200.7423,-829.7 1238.5029,-829.7"/>
      <polygon fill="#000000" stroke="#000000" points="1238.5289,-833.2001 1248.5289,-829.7 1238.5288,-826.2001 1238.5289,-833.2001"/>
      <text text-anchor="middle" x="1181.3148" y="-833.9" font-family="Times,serif" font-size="14.00" fill="#000000">1..*</text>
    </g>
    <!-- Course -->
    <g id="node6" class="node">
      <title>Course</title>
      <polygon fill="none" stroke="#000000" points="1242.8148,-930.1 1242.8148,-1005.3 1495.697,-1005.3 1495.697,-930.1 1242.8148,-930.1"/>
      <text text-anchor="middle" x="1273.3723" y="-963.5" font-family="Helvetica,sans-Serif" font-size="14.00" fill="#000000">Course</text>
      <polyline fill="none" stroke="#000000" points="1303.9298,-930.1 1303.9298,-1005.3 "/>
      <text text-anchor="start" x="1311.9298" y="-988.7" font-family="Helvetica,sans-Serif" font-size="14.00" fill="#000000">COURSE_ID : Number</text>
      <text text-anchor="start" x="1311.9298" y="-971.9" font-family="Helvetica,sans-Serif" font-size="14.00" fill="#000000"> COURSE_CODE : String</text>
      <text text-anchor="start" x="1311.9298" y="-955.1" font-family="Helvetica,sans-Serif" font-size="14.00" fill="#000000"> COURSE_NAME : String</text>
      <text text-anchor="start" x="1311.9298" y="-938.3" font-family="Helvetica,sans-Serif" font-size="14.00" fill="#000000"> CREDIT_HOURS : Number</text>
    </g>
    <!-- Program&#45;&gt;Course -->
    <g id="edge4" class="edge">
      <title>Program-&gt;Course</title>
      <path fill="none" stroke="#000000" d="M1047.3468,-858.9663C1105.7191,-878.6831 1183.531,-904.9663 1248.0299,-926.7525"/>
      <polygon fill="#000000" stroke="#000000" points="1247.2591,-930.1864 1257.8533,-930.0707 1249.4992,-923.5545 1247.2591,-930.1864"/>
      <text text-anchor="middle" x="1181.3148" y="-910.9" font-family="Times,serif" font-size="14.00" fill="#000000">1..*</text>
    </g>
    <!-- Faculty -->
    <g id="node5" class="node">
      <title>Faculty</title>
      <polygon fill="none" stroke="#000000" points="19.0645,-980.7 19.0645,-1072.7 244.7461,-1072.7 244.7461,-980.7 19.0645,-980.7"/>
      <text text-anchor="middle" x="49.622" y="-1022.5" font-family="Helvetica,sans-Serif" font-size="14.00" fill="#000000">Faculty</text>
      <polyline fill="none" stroke="#000000" points="80.1795,-980.7 80.1795,-1072.7 "/>
      <text text-anchor="start" x="88.1795" y="-1056.1" font-family="Helvetica,sans-Serif" font-size="14.00" fill="#000000">FACULTY_ID : Number</text>
      <text text-anchor="start" x="88.1795" y="-1039.3" font-family="Helvetica,sans-Serif" font-size="14.00" fill="#000000"> FULL_NAME : String</text>
      <text text-anchor="start" x="88.1795" y="-1022.5" font-family="Helvetica,sans-Serif" font-size="14.00" fill="#000000"> DESIGNATION : String</text>
      <text text-anchor="start" x="88.1795" y="-1005.7" font-family="Helvetica,sans-Serif" font-size="14.00" fill="#000000"> EMAIL : String</text>
      <text text-anchor="start" x="88.1795" y="-988.9" font-family="Helvetica,sans-Serif" font-size="14.00" fill="#000000"> PHONE : String</text>
    </g>
    <!-- CourseAssigned -->
    <g id="node7" class="node">
      <title>CourseAssigned</title>
      <polygon fill="none" stroke="#000000" points="1618.697,-907.5 1618.697,-965.9 1890.293,-965.9 1890.293,-907.5 1618.697,-907.5"/>
      <text text-anchor="middle" x="1678.0413" y="-932.5" font-family="Helvetica,sans-Serif" font-size="14.00" fill="#000000">CourseAssigned</text>
      <polyline fill="none" stroke="#000000" points="1737.3856,-907.5 1737.3856,-965.9 "/>
      <text text-anchor="start" x="1745.3856" y="-949.3" font-family="Helvetica,sans-Serif" font-size="14.00" fill="#000000">ID : Number</text>
      <text text-anchor="start" x="1745.3856" y="-932.5" font-family="Helvetica,sans-Serif" font-size="14.00" fill="#000000"> ACAD_YEAR : String</text>
      <text text-anchor="start" x="1745.3856" y="-915.7" font-family="Helvetica,sans-Serif" font-size="14.00" fill="#000000"> SECTION : String</text>
    </g>
    <!-- Faculty&#45;&gt;CourseAssigned -->
    <g id="edge6" class="edge">
      <title>Faculty-&gt;CourseAssigned</title>
      <path fill="none" stroke="#000000" d="M245.0199,-1069.5417C324.6864,-1095.912 434.5009,-1124.7 534.2545,-1124.7 534.2545,-1124.7 534.2545,-1124.7 1369.2559,-1124.7 1506.5625,-1124.7 1646.0527,-1027.0504 1713.2602,-972.5039"/>
      <polygon fill="#000000" stroke="#000000" points="1715.5837,-975.1248 1721.0929,-966.075 1711.1426,-969.714 1715.5837,-975.1248"/>
      <text text-anchor="middle" x="960.7033" y="-1128.9" font-family="Times,serif" font-size="14.00" fill="#000000">1..*</text>
    </g>
    <!-- Faculty&#45;&gt;Users -->
    <g id="edge19" class="edge">
      <title>Faculty-&gt;Users</title>
      <path fill="none" stroke="#000000" d="M244.7848,-996.1199C292.8377,-983.102 349.2751,-967.8126 399.4935,-954.208"/>
      <polygon fill="#000000" stroke="#000000" points="400.7131,-957.5038 409.4499,-951.5107 398.8826,-950.7474 400.7131,-957.5038"/>
      <text text-anchor="middle" x="326.8639" y="-978.9" font-family="Times,serif" font-size="14.00" fill="#000000">1..1</text>
    </g>
    <!-- Course&#45;&gt;CourseAssigned -->
    <g id="edge5" class="edge">
      <title>Course-&gt;CourseAssigned</title>
      <path fill="none" stroke="#000000" d="M1495.9312,-957.5065C1531.8127,-954.6191 1571.1662,-951.4524 1608.1084,-948.4797"/>
      <polygon fill="#000000" stroke="#000000" points="1608.7722,-951.9376 1618.4592,-947.6467 1608.2107,-944.9602 1608.7722,-951.9376"/>
      <text text-anchor="middle" x="1557.197" y="-956.9" font-family="Times,serif" font-size="14.00" fill="#000000">1..*</text>
    </g>
    <!-- CourseAssigned&#45;&gt;Enrollment -->
    <g id="edge9" class="edge">
      <title>CourseAssigned-&gt;Enrollment</title>
      <path fill="none" stroke="#000000" d="M1811.9764,-907.4718C1890.7255,-867.4294 2030.8749,-796.166 2105.5686,-758.1857"/>
      <polygon fill="#000000" stroke="#000000" points="2107.4559,-761.1526 2114.7833,-753.5002 2104.2831,-754.9129 2107.4559,-761.1526"/>
      <text text-anchor="middle" x="1951.793" y="-844.9" font-family="Times,serif" font-size="14.00" fill="#000000">1..*</text>
    </g>
    <!-- Semester -->
    <g id="node8" class="node">
      <title>Semester</title>
      <polygon fill="none" stroke="#000000" points="1243.1928,-654.1 1243.1928,-729.3 1495.319,-729.3 1495.319,-654.1 1243.1928,-654.1"/>
      <text text-anchor="middle" x="1281.1409" y="-687.5" font-family="Helvetica,sans-Serif" font-size="14.00" fill="#000000">Semester</text>
      <polyline fill="none" stroke="#000000" points="1319.089,-654.1 1319.089,-729.3 "/>
      <text text-anchor="start" x="1327.089" y="-712.7" font-family="Helvetica,sans-Serif" font-size="14.00" fill="#000000">SEMESTER_ID : Number</text>
      <text text-anchor="start" x="1327.089" y="-695.9" font-family="Helvetica,sans-Serif" font-size="14.00" fill="#000000"> NAME : String</text>
      <text text-anchor="start" x="1327.089" y="-679.1" font-family="Helvetica,sans-Serif" font-size="14.00" fill="#000000"> START_DATE : Date</text>
      <text text-anchor="start" x="1327.089" y="-662.3" font-family="Helvetica,sans-Serif" font-size="14.00" fill="#000000"> END_DATE : Date</text>
    </g>
    <!-- Semester&#45;&gt;CourseAssigned -->
    <g id="edge7" class="edge">
      <title>Semester-&gt;CourseAssigned</title>
      <path fill="none" stroke="#000000" d="M1431.8581,-729.3352C1452.2869,-741.7466 1475.0279,-755.7015 1495.697,-768.7 1567.6451,-813.9471 1649.8228,-867.6426 1701.9114,-901.9326"/>
      <polygon fill="#000000" stroke="#000000" points="1700.0476,-904.896 1710.324,-907.4742 1703.8983,-899.0503 1700.0476,-904.896"/>
      <text text-anchor="middle" x="1557.197" y="-817.9" font-family="Times,serif" font-size="14.00" fill="#000000">1..*</text>
    </g>
    <!-- Semester&#45;&gt;Enrollment -->
    <g id="edge10" class="edge">
      <title>Semester-&gt;Enrollment</title>
      <path fill="none" stroke="#000000" d="M1495.6101,-698.2874C1633.7655,-705.49 1855.1374,-717.031 2002.9361,-724.7363"/>
      <polygon fill="#000000" stroke="#000000" points="2002.8369,-728.2358 2013.0055,-725.2613 2003.2014,-721.2453 2002.8369,-728.2358"/>
      <text text-anchor="middle" x="1754.495" y="-721.9" font-family="Times,serif" font-size="14.00" fill="#000000">1..*</text>
    </g>
    <!-- Attendance -->
    <g id="node10" class="node">
      <title>Attendance</title>
      <polygon fill="none" stroke="#000000" points="2421.0868,-777.5 2421.0868,-835.9 2788.3448,-835.9 2788.3448,-777.5 2421.0868,-777.5"/>
      <text text-anchor="middle" x="2464.4935" y="-802.5" font-family="Helvetica,sans-Serif" font-size="14.00" fill="#000000">Attendance</text>
      <polyline fill="none" stroke="#000000" points="2507.9002,-777.5 2507.9002,-835.9 "/>
      <text text-anchor="start" x="2515.9002" y="-819.3" font-family="Helvetica,sans-Serif" font-size="14.00" fill="#000000">ATTENDANCE_ID : Number</text>
      <text text-anchor="start" x="2515.9002" y="-802.5" font-family="Helvetica,sans-Serif" font-size="14.00" fill="#000000"> ATTENDANCE_PERCENTAGE : Number</text>
      <text text-anchor="start" x="2515.9002" y="-785.7" font-family="Helvetica,sans-Serif" font-size="14.00" fill="#000000"> STATUS : String</text>
    </g>
    <!-- Enrollment&#45;&gt;Attendance -->
    <g id="edge11" class="edge">
      <title>Enrollment-&gt;Attendance</title>
      <path fill="none" stroke="#000000" d="M2281.9636,-753.5101C2324.0131,-760.4399 2371.7895,-768.3135 2417.4514,-775.8386"/>
      <polygon fill="#000000" stroke="#000000" points="2417.0294,-779.3162 2427.4654,-777.4889 2418.1677,-772.4094 2417.0294,-779.3162"/>
      <text text-anchor="middle" x="2359.5868" y="-770.9" font-family="Times,serif" font-size="14.00" fill="#000000">1..1</text>
    </g>
    <!-- CGPARecord -->
    <g id="node13" class="node">
      <title>CGPARecord</title>
      <polygon fill="none" stroke="#000000" points="2466.9781,-622.1 2466.9781,-697.3 2742.4535,-697.3 2742.4535,-622.1 2466.9781,-622.1"/>
      <text text-anchor="middle" x="2517.3708" y="-655.5" font-family="Helvetica,sans-Serif" font-size="14.00" fill="#000000">CGPARecord</text>
      <polyline fill="none" stroke="#000000" points="2567.7635,-622.1 2567.7635,-697.3 "/>
      <text text-anchor="start" x="2575.7635" y="-680.7" font-family="Helvetica,sans-Serif" font-size="14.00" fill="#000000">RECORD_ID : Number</text>
      <text text-anchor="start" x="2575.7635" y="-663.9" font-family="Helvetica,sans-Serif" font-size="14.00" fill="#000000"> GRADE : String</text>
      <text text-anchor="start" x="2575.7635" y="-647.1" font-family="Helvetica,sans-Serif" font-size="14.00" fill="#000000"> GPA : Number</text>
      <text text-anchor="start" x="2575.7635" y="-630.3" font-family="Helvetica,sans-Serif" font-size="14.00" fill="#000000"> CGPA_VALUE : Number</text>
    </g>
    <!-- Enrollment&#45;&gt;CGPARecord -->
    <g id="edge12" class="edge">
      <title>Enrollment-&gt;CGPARecord</title>
      <path fill="none" stroke="#000000" d="M2246.8875,-711.8428C2279.0726,-704.912 2315.5855,-697.5339 2349.0868,-691.9 2383.7146,-686.0767 2421.1426,-680.7969 2456.3973,-676.275"/>
      <polygon fill="#000000" stroke="#000000" points="2457.2897,-679.6899 2466.7693,-674.9582 2456.408,-672.7456 2457.2897,-679.6899"/>
      <text text-anchor="middle" x="2359.5868" y="-695.9" font-family="Times,serif" font-size="14.00" fill="#000000">1..*</text>
    </g>
    <!-- Exam -->
    <g id="node11" class="node">
      <title>Exam</title>
      <polygon fill="none" stroke="#000000" points="14.0091,-.5 14.0091,-58.9 249.8015,-58.9 249.8015,-.5 14.0091,-.5"/>
      <text text-anchor="middle" x="39.899" y="-25.5" font-family="Helvetica,sans-Serif" font-size="14.00" fill="#000000">Exam</text>
      <polyline fill="none" stroke="#000000" points="65.7889,-.5 65.7889,-58.9 "/>
      <text text-anchor="start" x="73.7889" y="-42.3" font-family="Helvetica,sans-Serif" font-size="14.00" fill="#000000">EXAM_ID : Number</text>
      <text text-anchor="start" x="73.7889" y="-25.5" font-family="Helvetica,sans-Serif" font-size="14.00" fill="#000000"> EXAM_TYPE : String</text>
      <text text-anchor="start" x="73.7889" y="-8.7" font-family="Helvetica,sans-Serif" font-size="14.00" fill="#000000"> TOTAL_MARKS : Number</text>
    </g>
    <!-- Exam&#45;&gt;ExamResult -->
    <g id="edge13" class="edge">
      <title>Exam-&gt;ExamResult</title>
      <path fill="none" stroke="#000000" d="M249.8062,-20.1012C278.9893,-19.3002 310.1384,-19.7841 338.9172,-22.9 374.8868,-26.7944 413.9417,-34.6108 447.6092,-42.5106"/>
      <polygon fill="#000000" stroke="#000000" points="446.8746,-45.9335 457.4138,-44.8488 448.4985,-39.1244 446.8746,-45.9335"/>
      <text text-anchor="middle" x="326.8639" y="-27.9" font-family="Times,serif" font-size="14.00" fill="#000000">1..*</text>
    </g>
    <!-- Payment -->
    <g id="node15" class="node">
      <title>Payment</title>
      <polygon fill="none" stroke="#000000" points="833.8632,-331.1 833.8632,-406.3 1087.5434,-406.3 1087.5434,-331.1 833.8632,-331.1"/>
      <text text-anchor="middle" x="869.481" y="-364.5" font-family="Helvetica,sans-Serif" font-size="14.00" fill="#000000">Payment</text>
      <polyline fill="none" stroke="#000000" points="905.0988,-331.1 905.0988,-406.3 "/>
      <text text-anchor="start" x="913.0988" y="-389.7" font-family="Helvetica,sans-Serif" font-size="14.00" fill="#000000">PAYMENT_ID : Number</text>
      <text text-anchor="start" x="913.0988" y="-372.9" font-family="Helvetica,sans-Serif" font-size="14.00" fill="#000000"> PAYMENT_DATE : Date</text>
      <text text-anchor="start" x="913.0988" y="-356.1" font-family="Helvetica,sans-Serif" font-size="14.00" fill="#000000"> AMOUNT_PAID : Number</text>
      <text text-anchor="start" x="913.0988" y="-339.3" font-family="Helvetica,sans-Serif" font-size="14.00" fill="#000000"> METHOD : String</text>
    </g>
    <!-- Fee&#45;&gt;Payment -->
    <g id="edge16" class="edge">
      <title>Fee-&gt;Payment</title>
      <path fill="none" stroke="#000000" d="M625.4768,-368.7C683.0751,-368.7 758.574,-368.7 823.3369,-368.7"/>
      <polygon fill="#000000" stroke="#000000" points="823.6344,-372.2001 833.6343,-368.7 823.6343,-365.2001 823.6344,-372.2001"/>
      <text text-anchor="middle" x="740.0918" y="-372.9" font-family="Times,serif" font-size="14.00" fill="#000000">1..*</text>
    </g>
  </g>
</svg>
