<?xml version="1.0" encoding="UTF-8" standalone="no"?>
<!DOCTYPE svg PUBLIC "-//W3C//DTD SVG 1.1//EN" "http://www.w3.org/Graphics/SVG/1.1/DTD/svg11.dtd">
<!-- Generated by graphviz version 2.40.1 (20161225.0304)
 -->
<!-- Title: DFD0 Pages: 1 -->
<svg xmlns="http://www.w3.org/2000/svg" xmlns:xlink="http://www.w3.org/1999/xlink" width="759pt" height="396pt" viewBox="0.00 0.00 758.71 396.15">
  <g id="graph0" class="graph" transform="scale(1 1) rotate(0) translate(4 392.1476)">
    <title>DFD0</title>
    <polygon fill="#ffffff" stroke="transparent" points="-4,4 -4,-392.1476 754.7066,-392.1476 754.7066,4 -4,4"/>
    <!-- Student -->
    <g id="node1" class="node">
      <title>Student</title>
      <polygon fill="#add8e6" stroke="#000000" points="64.3728,-252.5476 -.1246,-252.5476 -.1246,-216.5476 64.3728,-216.5476 64.3728,-252.5476"/>
      <text text-anchor="middle" x="32.1241" y="-230.3476" font-family="Helvetica,sans-Serif" font-size="14.00" fill="#000000">Student</text>
    </g>
    <!-- System -->
    <g id="node4" class="node">
      <title>System</title>
      <ellipse fill="#000000" stroke="#000000" cx="380.4115" cy="-234.5476" rx="96.6443" ry="29.3315"/>
      <text text-anchor="middle" x="380.4115" y="-238.7476" font-family="Helvetica,sans-Serif" font-size="14.00" fill="#000000">University Student</text>
      <text text-anchor="middle" x="380.4115" y="-221.9476" font-family="Helvetica,sans-Serif" font-size="14.00" fill="#000000">Information System</text>
    </g>
    <!-- Student&#45;&gt;System -->
    <g id="edge1" class="edge">
      <title>Student-&gt;System</title>
      <path fill="none" stroke="#000000" d="M64.2659,-234.5476C111.4714,-234.5476 201.7512,-234.5476 273.7901,-234.5476"/>
      <polygon fill="#000000" stroke="#000000" points="273.8277,-238.0477 283.8277,-234.5476 273.8277,-231.0477 273.8277,-238.0477"/>
      <text text-anchor="middle" x="174.0438" y="-272.3476" font-family="Times,serif" font-size="14.00" fill="#000000">Registration Data</text>
      <text text-anchor="middle" x="174.0438" y="-255.5476" font-family="Times,serif" font-size="14.00" fill="#000000">Enrollment Request</text>
      <text text-anchor="middle" x="174.0438" y="-238.7476" font-family="Times,serif" font-size="14.00" fill="#000000">Fee Payment</text>
    </g>
    <!-- Faculty -->
    <g id="node2" class="node">
      <title>Faculty</title>
      <polygon fill="#add8e6" stroke="#000000" points="750.7642,-377.5476 689.534,-377.5476 689.534,-341.5476 750.7642,-341.5476 750.7642,-377.5476"/>
      <text text-anchor="middle" x="720.1491" y="-355.3476" font-family="Helvetica,sans-Serif" font-size="14.00" fill="#000000">Faculty</text>
    </g>
    <!-- Faculty&#45;&gt;System -->
    <g id="edge3" class="edge">
      <title>Faculty-&gt;System</title>
      <path fill="none" stroke="#000000" d="M705.7153,-341.3401C690.3373,-323.2759 664.2923,-296.2778 635.5916,-281.9476 589.3923,-258.8802 533.4194,-246.9665 485.6812,-240.8431"/>
      <polygon fill="#000000" stroke="#000000" points="485.9748,-237.3532 475.6259,-239.6224 485.1311,-244.3021 485.9748,-237.3532"/>
      <text text-anchor="middle" x="583.2876" y="-303.5476" font-family="Times,serif" font-size="14.00" fill="#000000">Attendance Data</text>
      <text text-anchor="middle" x="583.2876" y="-286.7476" font-family="Times,serif" font-size="14.00" fill="#000000">Marks Submission</text>
    </g>
    <!-- Admin -->
    <g id="node3" class="node">
      <title>Admin</title>
      <polygon fill="#add8e6" stroke="#000000" points="747.8191,-120.5476 692.4792,-120.5476 692.4792,-84.5476 747.8191,-84.5476 747.8191,-120.5476"/>
      <text text-anchor="middle" x="720.1491" y="-98.3476" font-family="Helvetica,sans-Serif" font-size="14.00" fill="#000000">Admin</text>
    </g>
    <!-- Admin&#45;&gt;System -->
    <g id="edge5" class="edge">
      <title>Admin-&gt;System</title>
      <path fill="none" stroke="#000000" d="M709.1204,-84.327C695.0817,-63.1012 668.6364,-29.1562 635.5916,-15.1476 592.7867,2.9987 572.1216,6.5138 530.9836,-15.1476 458.7877,-53.1627 414.5404,-143.1531 394.0412,-195.3078"/>
      <polygon fill="#000000" stroke="#000000" points="390.6772,-194.3058 390.3726,-204.8963 397.215,-196.8073 390.6772,-194.3058"/>
      <text text-anchor="middle" x="583.2876" y="-53.3476" font-family="Times,serif" font-size="14.00" fill="#000000">User Management</text>
      <text text-anchor="middle" x="583.2876" y="-36.5476" font-family="Times,serif" font-size="14.00" fill="#000000">Approvals</text>
      <text text-anchor="middle" x="583.2876" y="-19.7476" font-family="Times,serif" font-size="14.00" fill="#000000">Reports</text>
    </g>
    <!-- System&#45;&gt;Student -->
    <g id="edge2" class="edge">
      <title>System-&gt;Student</title>
      <path fill="none" stroke="#000000" d="M339.364,-207.9043C287.217,-177.5591 194.7953,-135.5437 118.2482,-163.1476 93.1262,-172.2069 70.1451,-192.1325 54.2524,-208.638"/>
      <polygon fill="#000000" stroke="#000000" points="51.2815,-206.6939 47.0417,-216.4035 56.411,-211.4571 51.2815,-206.6939"/>
      <text text-anchor="middle" x="174.0438" y="-201.3476" font-family="Times,serif" font-size="14.00" fill="#000000">Results</text>
      <text text-anchor="middle" x="174.0438" y="-184.5476" font-family="Times,serif" font-size="14.00" fill="#000000">Attendance Status</text>
      <text text-anchor="middle" x="174.0438" y="-167.7476" font-family="Times,serif" font-size="14.00" fill="#000000">Fee Status</text>
    </g>
    <!-- System&#45;&gt;Faculty -->
    <g id="edge4" class="edge">
      <title>System-&gt;Faculty</title>
      <path fill="none" stroke="#000000" d="M413.6625,-262.3495C442.7254,-285.0705 487.0412,-316.0389 530.9836,-332.5476 579.7697,-350.8759 639.9152,-356.8772 679.1068,-358.7785"/>
      <polygon fill="#000000" stroke="#000000" points="679.1962,-362.2852 689.3332,-359.2044 679.4875,-355.2912 679.1962,-362.2852"/>
      <text text-anchor="middle" x="583.2876" y="-375.5476" font-family="Times,serif" font-size="14.00" fill="#000000">Class Lists</text>
      <text text-anchor="middle" x="583.2876" y="-358.7476" font-family="Times,serif" font-size="14.00" fill="#000000">Student Info</text>
    </g>
    <!-- System&#45;&gt;Admin -->
    <g id="edge6" class="edge">
      <title>System-&gt;Admin</title>
      <path fill="none" stroke="#000000" d="M440.3677,-211.2525C510.4167,-184.036 624.1659,-139.8404 682.7093,-117.0943"/>
      <polygon fill="#000000" stroke="#000000" points="684.2427,-120.2535 692.2963,-113.3694 681.7075,-113.7286 684.2427,-120.2535"/>
      <text text-anchor="middle" x="583.2876" y="-193.5476" font-family="Times,serif" font-size="14.00" fill="#000000">System Reports</text>
      <text text-anchor="middle" x="583.2876" y="-176.7476" font-family="Times,serif" font-size="14.00" fill="#000000">Statistics</text>
    </g>
  </g>
</svg>
