<?xml version="1.0" encoding="UTF-8" standalone="no"?>
<!DOCTYPE svg PUBLIC "-//W3C//DTD SVG 1.1//EN" "http://www.w3.org/Graphics/SVG/1.1/DTD/svg11.dtd">
<!-- Generated by graphviz version 2.40.1 (20161225.0304)
 -->
<!-- Title: ER Pages: 1 -->
<svg xmlns="http://www.w3.org/2000/svg" xmlns:xlink="http://www.w3.org/1999/xlink" width="2188pt" height="848pt" viewBox="0.00 0.00 2188.06 848.00">
  <g id="graph0" class="graph" transform="scale(1 1) rotate(0) translate(4 844)">
    <title>ER</title>
    <polygon fill="#ffffff" stroke="transparent" points="-4,4 -4,-844 2184.0628,-844 2184.0628,4 -4,4"/>
    <!-- student -->
    <g id="node1" class="node">
      <title>student</title>
      <polygon fill="none" stroke="#000000" points="87.5997,-423 5.4031,-423 5.4031,-387 87.5997,-387 87.5997,-423"/>
      <text text-anchor="middle" x="46.5014" y="-400.8" font-family="Helvetica,sans-Serif" font-size="14.00" fill="#000000">STUDENT</text>
    </g>
    <!-- belongs -->
    <g id="node18" class="node">
      <title>belongs</title>
      <polygon fill="none" stroke="#000000" points="330.3774,-771 221.9997,-753 330.3774,-735 438.755,-753 330.3774,-771"/>
      <text text-anchor="middle" x="330.3774" y="-748.8" font-family="Helvetica,sans-Serif" font-size="14.00" fill="#000000">BELONGS_TO</text>
    </g>
    <!-- student&#45;&gt;belongs -->
    <g id="edge1" class="edge">
      <title>student-&gt;belongs</title>
      <path fill="none" stroke="#000000" d="M62.9973,-423.0332C72.1547,-433.316 83.5671,-446.5913 93.0028,-459 148.6637,-532.1981 149.6009,-559.9696 208.0028,-631 242.1075,-672.4793 288.3486,-715.599 313.0802,-737.7856"/>
      <text text-anchor="middle" x="76.7589" y="-424.8013" font-family="Helvetica,sans-Serif" font-size="14.00" fill="#000000">N</text>
    </g>
    <!-- enrolls -->
    <g id="node21" class="node">
      <title>enrolls</title>
      <polygon fill="none" stroke="#000000" points="330.3774,-595 251.1786,-577 330.3774,-559 409.5761,-577 330.3774,-595"/>
      <text text-anchor="middle" x="330.3774" y="-572.8" font-family="Helvetica,sans-Serif" font-size="14.00" fill="#000000">ENROLLS</text>
    </g>
    <!-- student&#45;&gt;enrolls -->
    <g id="edge13" class="edge">
      <title>student-&gt;enrolls</title>
      <path fill="none" stroke="#000000" d="M76.3446,-423.0819C133.7123,-457.8409 258.1544,-533.2402 308.5395,-563.7685"/>
      <text text-anchor="middle" x="91.2565" y="-420.5049" font-family="Helvetica,sans-Serif" font-size="14.00" fill="#000000">1</text>
    </g>
    <!-- has -->
    <g id="node23" class="node">
      <title>has</title>
      <polygon fill="none" stroke="#000000" points="1358.6318,-423 1314.7658,-405 1358.6318,-387 1402.4978,-405 1358.6318,-423"/>
      <text text-anchor="middle" x="1358.6318" y="-400.8" font-family="Helvetica,sans-Serif" font-size="14.00" fill="#000000">HAS</text>
    </g>
    <!-- student&#45;&gt;has -->
    <g id="edge23" class="edge">
      <title>student-&gt;has</title>
      <path fill="none" stroke="#000000" d="M84.7017,-386.9503C177.8412,-369 424.0517,-369 629.5282,-369 629.5282,-369 629.5282,-369 890.1878,-369 1070.3273,-369 1289.4325,-369 1345.2166,-392.3187"/>
      <text text-anchor="middle" x="97.2022" y="-374.4594" font-family="Helvetica,sans-Serif" font-size="14.00" fill="#000000">1</text>
    </g>
    <!-- student&#45;&gt;has -->
    <g id="edge29" class="edge">
      <title>student-&gt;has</title>
      <path fill="none" stroke="#000000" d="M84.7017,-423.0497C177.8412,-441 424.0517,-441 629.5282,-441 629.5282,-441 629.5282,-441 890.1878,-441 1070.3273,-441 1289.4325,-441 1345.2166,-417.6813"/>
      <text text-anchor="middle" x="99.0881" y="-414.6031" font-family="Helvetica,sans-Serif" font-size="14.00" fill="#000000">1</text>
    </g>
    <!-- pays -->
    <g id="node24" class="node">
      <title>pays</title>
      <polygon fill="none" stroke="#000000" points="330.3774,-260 278.2986,-242 330.3774,-224 382.4561,-242 330.3774,-260"/>
      <text text-anchor="middle" x="330.3774" y="-237.8" font-family="Helvetica,sans-Serif" font-size="14.00" fill="#000000">PAYS</text>
    </g>
    <!-- student&#45;&gt;pays -->
    <g id="edge25" class="edge">
      <title>student-&gt;pays</title>
      <path fill="none" stroke="#000000" d="M77.9657,-386.9334C136.8632,-353.1147 262.1767,-281.1604 310.6552,-253.3244"/>
      <text text-anchor="middle" x="86.5985" y="-370.4665" font-family="Helvetica,sans-Serif" font-size="14.00" fill="#000000">1</text>
    </g>
    <!-- hasMarks -->
    <g id="node25" class="node">
      <title>hasMarks</title>
      <polygon fill="none" stroke="#000000" points="330.3774,-94.0528 230.6476,-76 330.3774,-57.9472 430.1071,-76 330.3774,-94.0528"/>
      <polygon fill="none" stroke="#000000" points="330.3774,-98.1292 208.1281,-76 330.3774,-53.8708 452.6266,-76 330.3774,-98.1292"/>
      <text text-anchor="middle" x="330.3774" y="-71.8" font-family="Helvetica,sans-Serif" font-size="14.00" fill="#000000">HAS_MARKS</text>
    </g>
    <!-- student&#45;&gt;hasMarks -->
    <g id="edge19" class="edge">
      <title>student-&gt;hasMarks</title>
      <path fill="none" stroke="#000000" d="M58.2068,-386.9657C83.4617,-348.6099 145.8247,-256.8225 208.0028,-188 240.2458,-152.3115 282.4986,-115.5234 307.9804,-94.2578"/>
      <text text-anchor="middle" x="60.4444" y="-367.9335" font-family="Helvetica,sans-Serif" font-size="14.00" fill="#000000">1</text>
    </g>
    <!-- dept -->
    <g id="node2" class="node">
      <title>dept</title>
      <polygon fill="none" stroke="#000000" points="685.961,-806 573.0954,-806 573.0954,-770 685.961,-770 685.961,-806"/>
      <text text-anchor="middle" x="629.5282" y="-783.8" font-family="Helvetica,sans-Serif" font-size="14.00" fill="#000000">DEPARTMENT</text>
    </g>
    <!-- offers -->
    <g id="node19" class="node">
      <title>offers</title>
      <polygon fill="none" stroke="#000000" points="890.1878,-840 819.2028,-822 890.1878,-804 961.1728,-822 890.1878,-840"/>
      <text text-anchor="middle" x="890.1878" y="-817.8" font-family="Helvetica,sans-Serif" font-size="14.00" fill="#000000">OFFERS</text>
    </g>
    <!-- dept&#45;&gt;offers -->
    <g id="edge3" class="edge">
      <title>dept-&gt;offers</title>
      <path fill="none" stroke="#000000" d="M685.7666,-795.3356C732.7603,-801.4654 798.999,-810.1055 843.2025,-815.8713"/>
      <text text-anchor="middle" x="700.0669" y="-786.608" font-family="Helvetica,sans-Serif" font-size="14.00" fill="#000000">1</text>
    </g>
    <!-- program -->
    <g id="node3" class="node">
      <title>program</title>
      <polygon fill="none" stroke="#000000" points="1188.839,-840 1100.1814,-840 1100.1814,-804 1188.839,-804 1188.839,-840"/>
      <text text-anchor="middle" x="1144.5102" y="-817.8" font-family="Helvetica,sans-Serif" font-size="14.00" fill="#000000">PROGRAM</text>
    </g>
    <!-- assigns -->
    <g id="node20" class="node">
      <title>assigns</title>
      <polygon fill="none" stroke="#000000" points="1832.7384,-630 1756.6032,-612 1832.7384,-594 1908.8736,-612 1832.7384,-630"/>
      <text text-anchor="middle" x="1832.7384" y="-607.8" font-family="Helvetica,sans-Serif" font-size="14.00" fill="#000000">ASSIGNS</text>
    </g>
    <!-- program&#45;&gt;assigns -->
    <g id="edge5" class="edge">
      <title>program-&gt;assigns</title>
      <path fill="none" stroke="#000000" d="M1188.8723,-808.4637C1316.9972,-769.3688 1685.6695,-656.8753 1799.113,-622.2602"/>
      <text text-anchor="middle" x="1200.025" y="-794.2329" font-family="Helvetica,sans-Serif" font-size="14.00" fill="#000000">1</text>
    </g>
    <!-- program&#45;&gt;has -->
    <g id="edge7" class="edge">
      <title>program-&gt;has</title>
      <path fill="none" stroke="#000000" d="M1166.7833,-803.9407C1177.8068,-794.1638 1190.698,-781.3689 1199.9492,-768 1283.7035,-646.9655 1338.3171,-474.6242 1353.9829,-421.3326"/>
      <text text-anchor="middle" x="1172.6489" y="-785.9351" font-family="Helvetica,sans-Serif" font-size="14.00" fill="#000000">1</text>
    </g>
    <!-- section -->
    <g id="node4" class="node">
      <title>section</title>
      <polygon fill="none" stroke="#000000" points="2141.2798,-738 2062.8388,-738 2062.8388,-702 2141.2798,-702 2141.2798,-738"/>
      <text text-anchor="middle" x="2102.0593" y="-715.8" font-family="Helvetica,sans-Serif" font-size="14.00" fill="#000000">SECTION</text>
    </g>
    <!-- faculty -->
    <g id="node5" class="node">
      <title>faculty</title>
      <polygon fill="none" stroke="#000000" points="1184.2847,-152 1104.7356,-152 1104.7356,-116 1184.2847,-116 1184.2847,-152"/>
      <text text-anchor="middle" x="1144.5102" y="-129.8" font-family="Helvetica,sans-Serif" font-size="14.00" fill="#000000">FACULTY</text>
    </g>
    <!-- faculty&#45;&gt;assigns -->
    <g id="edge11" class="edge">
      <title>faculty-&gt;assigns</title>
      <path fill="none" stroke="#000000" d="M1184.3104,-131.0155C1275.1679,-126.3335 1500.8321,-127.0297 1641.421,-234 1768.1483,-330.4233 1817.3611,-534.1064 1829.5308,-594.6662"/>
      <text text-anchor="middle" x="1197.663" y="-119.9812" font-family="Helvetica,sans-Serif" font-size="14.00" fill="#000000">1</text>
    </g>
    <!-- faculty&#45;&gt;has -->
    <g id="edge31" class="edge">
      <title>faculty-&gt;has</title>
      <path fill="none" stroke="#000000" d="M1164.8166,-152.2307C1175.6781,-162.3567 1189.0265,-175.4193 1199.9492,-188 1262.3687,-259.8945 1326.0721,-355.0043 1349.3762,-390.6762"/>
      <text text-anchor="middle" x="1179.0683" y="-152.7092" font-family="Helvetica,sans-Serif" font-size="14.00" fill="#000000">1</text>
    </g>
    <!-- course -->
    <g id="node6" class="node">
      <title>course</title>
      <polygon fill="none" stroke="#000000" points="1617.2514,-630 1541.4841,-630 1541.4841,-594 1617.2514,-594 1617.2514,-630"/>
      <text text-anchor="middle" x="1579.3677" y="-607.8" font-family="Helvetica,sans-Serif" font-size="14.00" fill="#000000">COURSE</text>
    </g>
    <!-- course&#45;&gt;assigns -->
    <g id="edge9" class="edge">
      <title>course-&gt;assigns</title>
      <path fill="none" stroke="#000000" d="M1617.2999,-612C1653.9523,-612 1710.5234,-612 1756.4995,-612"/>
      <text text-anchor="middle" x="1630.8945" y="-601.4607" font-family="Helvetica,sans-Serif" font-size="14.00" fill="#000000">1</text>
    </g>
    <!-- offer -->
    <g id="node7" class="node">
      <title>offer</title>
      <polygon fill="none" stroke="#000000" points="2180.0663,-630 2024.0523,-630 2024.0523,-594 2180.0663,-594 2180.0663,-630"/>
      <text text-anchor="middle" x="2102.0593" y="-607.8" font-family="Helvetica,sans-Serif" font-size="14.00" fill="#000000">COURSE_ASSIGNED</text>
    </g>
    <!-- semester -->
    <g id="node8" class="node">
      <title>semester</title>
      <polygon fill="none" stroke="#000000" points="93.0042,-531 -.0014,-531 -.0014,-495 93.0042,-495 93.0042,-531"/>
      <text text-anchor="middle" x="46.5014" y="-508.8" font-family="Helvetica,sans-Serif" font-size="14.00" fill="#000000">SEMESTER</text>
    </g>
    <!-- enroll -->
    <g id="node9" class="node">
      <title>enroll</title>
      <polygon fill="none" stroke="#000000" points="685.1907,-605 573.8657,-605 573.8657,-569 685.1907,-569 685.1907,-605"/>
      <text text-anchor="middle" x="629.5282" y="-582.8" font-family="Helvetica,sans-Serif" font-size="14.00" fill="#000000">ENROLLMENT</text>
    </g>
    <!-- records -->
    <g id="node22" class="node">
      <title>records</title>
      <polygon fill="none" stroke="#000000" points="890.1878,-732 806.421,-714 890.1878,-696 973.9547,-714 890.1878,-732"/>
      <text text-anchor="middle" x="890.1878" y="-709.8" font-family="Helvetica,sans-Serif" font-size="14.00" fill="#000000">RECORDS</text>
    </g>
    <!-- enroll&#45;&gt;records -->
    <g id="edge15" class="edge">
      <title>enroll-&gt;records</title>
      <path fill="none" stroke="#000000" d="M666.5976,-605.0611C720.1485,-631.1525 817.8126,-678.737 864.2836,-701.3788"/>
      <text text-anchor="middle" x="681.5954" y="-601.1168" font-family="Helvetica,sans-Serif" font-size="14.00" fill="#000000">1</text>
    </g>
    <!-- enroll&#45;&gt;has -->
    <g id="edge17" class="edge">
      <title>enroll-&gt;has</title>
      <path fill="none" stroke="#000000" d="M685.427,-584.7581C789.5063,-579.1424 1018.8638,-559.9428 1199.9492,-496 1256.2468,-476.1208 1315.4359,-436.3623 1342.9079,-416.6432"/>
      <text text-anchor="middle" x="698.6104" y="-573.4029" font-family="Helvetica,sans-Serif" font-size="14.00" fill="#000000">1</text>
    </g>
    <!-- att -->
    <g id="node10" class="node">
      <title>att</title>
      <polygon fill="none" stroke="#000000" points="1199.8882,-732 1089.1321,-732 1089.1321,-696 1199.8882,-696 1199.8882,-732"/>
      <text text-anchor="middle" x="1144.5102" y="-709.8" font-family="Helvetica,sans-Serif" font-size="14.00" fill="#000000">ATTENDANCE</text>
    </g>
    <!-- exam -->
    <g id="node11" class="node">
      <title>exam</title>
      <polygon fill="none" stroke="#000000" points="1172.1815,-260 1116.8388,-260 1116.8388,-224 1172.1815,-224 1172.1815,-260"/>
      <text text-anchor="middle" x="1144.5102" y="-237.8" font-family="Helvetica,sans-Serif" font-size="14.00" fill="#000000">EXAM</text>
    </g>
    <!-- exam&#45;&gt;has -->
    <g id="edge21" class="edge">
      <title>exam-&gt;has</title>
      <path fill="none" stroke="#000000" d="M1168.243,-260.0666C1212.4504,-293.7195 1306.264,-365.135 1343.2139,-393.2631"/>
      <text text-anchor="middle" x="1182.8998" y="-259.057" font-family="Helvetica,sans-Serif" font-size="14.00" fill="#000000">1</text>
    </g>
    <!-- result -->
    <g id="node12" class="node">
      <title>result</title>
      <polygon fill="none" stroke="#000000" points="1638.5428,-522 1520.1927,-522 1520.1927,-486 1638.5428,-486 1638.5428,-522"/>
      <text text-anchor="middle" x="1579.3677" y="-499.8" font-family="Helvetica,sans-Serif" font-size="14.00" fill="#000000">EXAM_RESULT</text>
    </g>
    <!-- cgpa -->
    <g id="node13" class="node">
      <title>cgpa</title>
      <polygon fill="none" stroke="#000000" points="1641.4744,-414 1517.2611,-414 1517.2611,-378 1641.4744,-378 1641.4744,-414"/>
      <text text-anchor="middle" x="1579.3677" y="-391.8" font-family="Helvetica,sans-Serif" font-size="14.00" fill="#000000">CGPA_RECORD</text>
    </g>
    <!-- fee -->
    <g id="node14" class="node">
      <title>fee</title>
      <polygon fill="none" stroke="#000000" points="656.5282,-260 602.5282,-260 602.5282,-224 656.5282,-224 656.5282,-260"/>
      <text text-anchor="middle" x="629.5282" y="-237.8" font-family="Helvetica,sans-Serif" font-size="14.00" fill="#000000">FEE</text>
    </g>
    <!-- fee&#45;&gt;pays -->
    <g id="edge27" class="edge">
      <title>fee-&gt;pays</title>
      <path fill="none" stroke="#000000" d="M602.4736,-258.3157C541.2089,-273.6655 393.4876,-272.4759 345.6236,-254.7469"/>
      <text text-anchor="middle" x="590.3663" y="-262.9708" font-family="Helvetica,sans-Serif" font-size="14.00" fill="#000000">1</text>
    </g>
    <!-- pay -->
    <g id="node15" class="node">
      <title>pay</title>
      <polygon fill="none" stroke="#000000" points="671.1951,-152 587.8613,-152 587.8613,-116 671.1951,-116 671.1951,-152"/>
      <text text-anchor="middle" x="629.5282" y="-129.8" font-family="Helvetica,sans-Serif" font-size="14.00" fill="#000000">PAYMENT</text>
    </g>
    <!-- users -->
    <g id="node16" class="node">
      <title>users</title>
      <polygon fill="none" stroke="#000000" points="1611.5911,-306 1547.1444,-306 1547.1444,-270 1611.5911,-270 1611.5911,-306"/>
      <text text-anchor="middle" x="1579.3677" y="-283.8" font-family="Helvetica,sans-Serif" font-size="14.00" fill="#000000">USERS</text>
    </g>
    <!-- inter -->
    <g id="node17" class="node">
      <title>inter</title>
      <polygon fill="none" stroke="#000000" points="687.096,-40 571.9604,-40 571.9604,-4 687.096,-4 687.096,-40"/>
      <polygon fill="none" stroke="#000000" points="691.0816,-44 567.9748,-44 567.9748,0 691.0816,0 691.0816,-44"/>
      <text text-anchor="middle" x="629.5282" y="-17.8" font-family="Helvetica,sans-Serif" font-size="14.00" fill="#000000">INTER_MARKS</text>
    </g>
    <!-- belongs&#45;&gt;dept -->
    <g id="edge2" class="edge">
      <title>belongs-&gt;dept</title>
      <path fill="none" stroke="#000000" d="M394.1858,-760.4654C447.2091,-766.6691 521.9506,-775.4137 572.8831,-781.3726"/>
      <text text-anchor="middle" x="558.6439" y="-781.8892" font-family="Helvetica,sans-Serif" font-size="14.00" fill="#000000">1</text>
    </g>
    <!-- offers&#45;&gt;program -->
    <g id="edge4" class="edge">
      <title>offers-&gt;program</title>
      <path fill="none" stroke="#000000" d="M961.369,-822C1005.8943,-822 1061.8601,-822 1100.1317,-822"/>
      <text text-anchor="middle" x="1086.537" y="-824.1393" font-family="Helvetica,sans-Serif" font-size="14.00" fill="#000000">N</text>
    </g>
    <!-- assigns&#45;&gt;section -->
    <g id="edge6" class="edge">
      <title>assigns-&gt;section</title>
      <path fill="none" stroke="#000000" d="M1861.0514,-623.3538C1909.4004,-642.7421 2007.9667,-682.2681 2062.8864,-704.2914"/>
      <text text-anchor="middle" x="2047.9091" y="-700.9153" font-family="Helvetica,sans-Serif" font-size="14.00" fill="#000000">N</text>
    </g>
    <!-- assigns&#45;&gt;offer -->
    <g id="edge10" class="edge">
      <title>assigns-&gt;offer</title>
      <path fill="none" stroke="#000000" d="M1849.9953,-597.9072C1894.5768,-582.1196 2014.072,-580.8151 2071.0333,-593.9937"/>
      <text text-anchor="middle" x="2056.5054" y="-593.5272" font-family="Helvetica,sans-Serif" font-size="14.00" fill="#000000">N</text>
    </g>
    <!-- assigns&#45;&gt;offer -->
    <g id="edge12" class="edge">
      <title>assigns-&gt;offer</title>
      <path fill="none" stroke="#000000" d="M1849.9953,-626.0928C1894.5768,-641.8804 2014.072,-643.1849 2071.0333,-630.0063"/>
      <text text-anchor="middle" x="2058.8349" y="-634.5355" font-family="Helvetica,sans-Serif" font-size="14.00" fill="#000000">N</text>
    </g>
    <!-- enrolls&#45;&gt;enroll -->
    <g id="edge14" class="edge">
      <title>enrolls-&gt;enroll</title>
      <path fill="none" stroke="#000000" d="M399.7605,-579.3193C452.5767,-581.0849 524.3324,-583.4835 573.5235,-585.1279"/>
      <text text-anchor="middle" x="559.7247" y="-586.8094" font-family="Helvetica,sans-Serif" font-size="14.00" fill="#000000">N</text>
    </g>
    <!-- records&#45;&gt;att -->
    <g id="edge16" class="edge">
      <title>records-&gt;att</title>
      <path fill="none" stroke="#000000" d="M974.1673,-714C1011.93,-714 1055.4579,-714 1089.0601,-714"/>
      <text text-anchor="middle" x="1075.4655" y="-716.1393" font-family="Helvetica,sans-Serif" font-size="14.00" fill="#000000">1</text>
    </g>
    <!-- has&#45;&gt;course -->
    <g id="edge8" class="edge">
      <title>has-&gt;course</title>
      <path fill="none" stroke="#000000" d="M1371.5816,-417.9243C1398.3723,-444.5639 1462.0071,-507.3326 1517.3144,-558 1530.5827,-570.1551 1545.8223,-583.4265 1557.8786,-593.7707"/>
      <text text-anchor="middle" x="1543.4371" y="-585.5154" font-family="Helvetica,sans-Serif" font-size="14.00" fill="#000000">N</text>
    </g>
    <!-- has&#45;&gt;result -->
    <g id="edge22" class="edge">
      <title>has-&gt;result</title>
      <path fill="none" stroke="#000000" d="M1388.4012,-399.1975C1437.8263,-409.1143 1534.6671,-454.6425 1567.8735,-485.9761"/>
      <text text-anchor="middle" x="1553.3669" y="-477.9603" font-family="Helvetica,sans-Serif" font-size="14.00" fill="#000000">N</text>
    </g>
    <!-- has&#45;&gt;result -->
    <g id="edge24" class="edge">
      <title>has-&gt;result</title>
      <path fill="none" stroke="#000000" d="M1367.0154,-419.9331C1391.7823,-445.9875 1466.2459,-483.7446 1520.0082,-501.631"/>
      <text text-anchor="middle" x="1505.0754" y="-498.8496" font-family="Helvetica,sans-Serif" font-size="14.00" fill="#000000">N</text>
    </g>
    <!-- has&#45;&gt;cgpa -->
    <g id="edge18" class="edge">
      <title>has-&gt;cgpa</title>
      <path fill="none" stroke="#000000" d="M1398.6054,-403.3702C1431.6528,-402.0227 1479.152,-400.0861 1517.1667,-398.5361"/>
      <text text-anchor="middle" x="1503.8416" y="-401.2239" font-family="Helvetica,sans-Serif" font-size="14.00" fill="#000000">N</text>
    </g>
    <!-- has&#45;&gt;users -->
    <g id="edge30" class="edge">
      <title>has-&gt;users</title>
      <path fill="none" stroke="#000000" d="M1366.4879,-389.9875C1395.1344,-356.8168 1495.0249,-300.9064 1547.1509,-285.3362"/>
      <text text-anchor="middle" x="1536.3505" y="-291.5454" font-family="Helvetica,sans-Serif" font-size="14.00" fill="#000000">1</text>
    </g>
    <!-- has&#45;&gt;users -->
    <g id="edge32" class="edge">
      <title>has-&gt;users</title>
      <path fill="none" stroke="#000000" d="M1401.1919,-404.2733C1453.3083,-385.847 1538.3595,-337.6864 1568.4214,-306.3953"/>
      <text text-anchor="middle" x="1562.7886" y="-316.0975" font-family="Helvetica,sans-Serif" font-size="14.00" fill="#000000">1</text>
    </g>
    <!-- pays&#45;&gt;fee -->
    <g id="edge26" class="edge">
      <title>pays-&gt;fee</title>
      <path fill="none" stroke="#000000" d="M345.6236,-229.2531C393.4876,-211.5241 541.2089,-210.3345 602.4736,-225.6843"/>
      <text text-anchor="middle" x="587.9078" y="-225.0671" font-family="Helvetica,sans-Serif" font-size="14.00" fill="#000000">N</text>
    </g>
    <!-- pays&#45;&gt;pay -->
    <g id="edge28" class="edge">
      <title>pays-&gt;pay</title>
      <path fill="none" stroke="#000000" d="M355.8828,-232.792C407.5261,-214.1476 524.8879,-171.7774 587.8219,-149.0569"/>
      <text text-anchor="middle" x="577.1877" y="-155.4358" font-family="Helvetica,sans-Serif" font-size="14.00" fill="#000000">N</text>
    </g>
    <!-- hasMarks&#45;&gt;inter -->
    <g id="edge20" class="edge">
      <title>hasMarks-&gt;inter</title>
      <path fill="none" stroke="#000000" d="M391.6369,-64.942C443.0894,-55.6543 516.2639,-42.4454 567.8373,-33.1359"/>
      <text text-anchor="middle" x="555.585" y="-37.5893" font-family="Helvetica,sans-Serif" font-size="14.00" fill="#000000">1</text>
    </g>
  </g>
</svg>
