<?xml version="1.0" encoding="UTF-8" standalone="no"?>
<!DOCTYPE svg PUBLIC "-//W3C//DTD SVG 1.1//EN" "http://www.w3.org/Graphics/SVG/1.1/DTD/svg11.dtd">
<!-- Generated by graphviz version 2.40.1 (20161225.0304)
 -->
<!-- Title: DFD Pages: 1 -->
<svg xmlns="http://www.w3.org/2000/svg" xmlns:xlink="http://www.w3.org/1999/xlink" width="2027pt" height="615pt" viewBox="0.00 0.00 2027.14 615.00">
  <g id="graph0" class="graph" transform="scale(1 1) rotate(0) translate(4 611)">
    <title>DFD</title>
    <polygon fill="#ffffff" stroke="transparent" points="-4,4 -4,-611 2023.1352,-611 2023.1352,4 -4,4"/>
    <!-- Student -->
    <g id="node1" class="node">
      <title>Student</title>
      <polygon fill="#add8e6" stroke="#000000" points="1114.6426,-355 1050.1453,-355 1050.1453,-319 1114.6426,-319 1114.6426,-355"/>
      <text text-anchor="middle" x="1082.3939" y="-332.8" font-family="Helvetica,sans-Serif" font-size="14.00" fill="#000000">Student</text>
    </g>
    <!-- P1 -->
    <g id="node4" class="node">
      <title>P1</title>
      <ellipse fill="#000000" stroke="#000000" cx="1497.9812" cy="-589" rx="114.1697" ry="18"/>
      <text text-anchor="middle" x="1497.9812" y="-584.8" font-family="Helvetica,sans-Serif" font-size="14.00" fill="#000000">1. Student Management</text>
    </g>
    <!-- Student&#45;&gt;P1 -->
    <g id="edge1" class="edge">
      <title>Student-&gt;P1</title>
      <path fill="none" stroke="#000000" d="M1088.479,-355.3367C1099.3015,-385.2206 1124.6752,-444.4522 1165.518,-478 1232.7708,-533.2406 1328.6484,-561.4033 1400.1749,-575.502"/>
      <polygon fill="#000000" stroke="#000000" points="1399.6211,-578.9594 1410.1005,-577.3993 1400.9355,-572.0839 1399.6211,-578.9594"/>
      <text text-anchor="middle" x="1221.3136" y="-542.2" font-family="Times,serif" font-size="14.00" fill="#000000">Student Details</text>
    </g>
    <!-- P2 -->
    <g id="node5" class="node">
      <title>P2</title>
      <ellipse fill="#000000" stroke="#000000" cx="1497.9812" cy="-205" rx="169.7441" ry="18"/>
      <text text-anchor="middle" x="1497.9812" y="-200.8" font-family="Helvetica,sans-Serif" font-size="14.00" fill="#000000">2. Course &amp; Enrollment Management</text>
    </g>
    <!-- Student&#45;&gt;P2 -->
    <g id="edge3" class="edge">
      <title>Student-&gt;P2</title>
      <path fill="none" stroke="#000000" d="M1114.7855,-321.9311C1130.0062,-315.1405 1148.508,-307.297 1165.518,-301.2 1252.0467,-270.1853 1353.8796,-241.8857 1421.8282,-224.1312"/>
      <polygon fill="#000000" stroke="#000000" points="1422.8047,-227.4937 1431.6017,-221.5891 1421.0426,-220.7191 1422.8047,-227.4937"/>
      <text text-anchor="middle" x="1221.3136" y="-305.2" font-family="Times,serif" font-size="14.00" fill="#000000">Enrollment Request</text>
    </g>
    <!-- P5 -->
    <g id="node8" class="node">
      <title>P5</title>
      <ellipse fill="#000000" stroke="#000000" cx="1497.9812" cy="-481" rx="147.1964" ry="18"/>
      <text text-anchor="middle" x="1497.9812" y="-476.8" font-family="Helvetica,sans-Serif" font-size="14.00" fill="#000000">5. Fee &amp; Payment Management</text>
    </g>
    <!-- Student&#45;&gt;P5 -->
    <g id="edge10" class="edge">
      <title>Student-&gt;P5</title>
      <path fill="none" stroke="#000000" d="M1099.4913,-355.0751C1115.209,-370.619 1139.896,-392.4586 1165.518,-405 1232.1608,-437.6201 1313.2255,-456.5157 1378.6231,-467.3068"/>
      <polygon fill="#000000" stroke="#000000" points="1378.1378,-470.7737 1388.5666,-468.9054 1379.249,-463.8624 1378.1378,-470.7737"/>
      <text text-anchor="middle" x="1221.3136" y="-447.2" font-family="Times,serif" font-size="14.00" fill="#000000">Fee Payment</text>
    </g>
    <!-- P6 -->
    <g id="node9" class="node">
      <title>P6</title>
      <ellipse fill="#000000" stroke="#000000" cx="1497.9812" cy="-95" rx="106.0444" ry="18"/>
      <text text-anchor="middle" x="1497.9812" y="-90.8" font-family="Helvetica,sans-Serif" font-size="14.00" fill="#000000">6. User Authentication</text>
    </g>
    <!-- Student&#45;&gt;P6 -->
    <g id="edge12" class="edge">
      <title>Student-&gt;P6</title>
      <path fill="none" stroke="#000000" d="M1092.9851,-318.6736C1107.0844,-295.5746 1133.946,-255.8017 1165.518,-230.2 1242.1327,-168.0733 1351.1242,-131.083 1423.1539,-111.8981"/>
      <polygon fill="#000000" stroke="#000000" points="1424.2747,-115.2228 1433.065,-109.3084 1422.505,-108.4502 1424.2747,-115.2228"/>
      <text text-anchor="middle" x="1221.3136" y="-234.2" font-family="Times,serif" font-size="14.00" fill="#000000">Login Credentials</text>
    </g>
    <!-- Faculty -->
    <g id="node2" class="node">
      <title>Faculty</title>
      <polygon fill="#add8e6" stroke="#000000" points="61.1726,-247 -.0576,-247 -.0576,-211 61.1726,-211 61.1726,-247"/>
      <text text-anchor="middle" x="30.5575" y="-224.8" font-family="Helvetica,sans-Serif" font-size="14.00" fill="#000000">Faculty</text>
    </g>
    <!-- P3 -->
    <g id="node6" class="node">
      <title>P3</title>
      <ellipse fill="#000000" stroke="#000000" cx="387.6093" cy="-229" rx="129.7999" ry="18"/>
      <text text-anchor="middle" x="387.6093" y="-224.8" font-family="Helvetica,sans-Serif" font-size="14.00" fill="#000000">3. Attendance Management</text>
    </g>
    <!-- Faculty&#45;&gt;P3 -->
    <g id="edge6" class="edge">
      <title>Faculty-&gt;P3</title>
      <path fill="none" stroke="#000000" d="M61.1259,-226.3097C76.4236,-225.0949 95.2335,-223.7995 112.115,-223.2 158.3407,-221.5584 208.947,-221.9842 254.0312,-223.1498"/>
      <polygon fill="#000000" stroke="#000000" points="254.0695,-226.6521 264.1613,-223.4264 254.2606,-219.6547 254.0695,-226.6521"/>
      <text text-anchor="middle" x="157.3987" y="-227.2" font-family="Times,serif" font-size="14.00" fill="#000000">Attendance Info</text>
    </g>
    <!-- P4 -->
    <g id="node7" class="node">
      <title>P4</title>
      <ellipse fill="#000000" stroke="#000000" cx="387.6093" cy="-337" rx="133.8539" ry="18"/>
      <text text-anchor="middle" x="387.6093" y="-332.8" font-family="Helvetica,sans-Serif" font-size="14.00" fill="#000000">4. Examination Management</text>
    </g>
    <!-- Faculty&#45;&gt;P4 -->
    <g id="edge8" class="edge">
      <title>Faculty-&gt;P4</title>
      <path fill="none" stroke="#000000" d="M61.1427,-238.4134C76.4445,-243.1133 95.2531,-248.8756 112.115,-254 184.2542,-275.9233 267.0964,-300.8477 322.943,-317.6133"/>
      <polygon fill="#000000" stroke="#000000" points="322.1181,-321.0199 332.7022,-320.5425 324.1305,-314.3154 322.1181,-321.0199"/>
      <text text-anchor="middle" x="157.3987" y="-283.2" font-family="Times,serif" font-size="14.00" fill="#000000">Marks / Grades</text>
    </g>
    <!-- Faculty&#45;&gt;P6 -->
    <g id="edge13" class="edge">
      <title>Faculty-&gt;P6</title>
      <path fill="none" stroke="#000000" d="M45.0542,-210.6471C89.7516,-156.3062 231.8565,0 387.6093,0 387.6093,0 387.6093,0 1082.3939,0 1215.8289,0 1367.4401,-47.1175 1445.4458,-74.9871"/>
      <polygon fill="#000000" stroke="#000000" points="1444.4493,-78.3484 1455.0436,-78.4523 1446.8264,-71.7644 1444.4493,-78.3484"/>
      <text text-anchor="middle" x="791.727" y="-4.2" font-family="Times,serif" font-size="14.00" fill="#000000">Login Credentials</text>
    </g>
    <!-- Admin -->
    <g id="node3" class="node">
      <title>Admin</title>
      <polygon fill="#add8e6" stroke="#000000" points="1110.0639,-145 1054.724,-145 1054.724,-109 1110.0639,-109 1110.0639,-145"/>
      <text text-anchor="middle" x="1082.3939" y="-122.8" font-family="Helvetica,sans-Serif" font-size="14.00" fill="#000000">Admin</text>
    </g>
    <!-- Admin&#45;&gt;P6 -->
    <g id="edge14" class="edge">
      <title>Admin-&gt;P6</title>
      <path fill="none" stroke="#000000" d="M1110.3755,-121.5672C1126.4491,-118.6444 1147.051,-115.2322 1165.518,-113.2 1237.5122,-105.2775 1318.675,-100.7504 1382.785,-98.1927"/>
      <polygon fill="#000000" stroke="#000000" points="1383.0672,-101.6845 1392.9238,-97.799 1382.7954,-94.6898 1383.0672,-101.6845"/>
      <text text-anchor="middle" x="1221.3136" y="-117.2" font-family="Times,serif" font-size="14.00" fill="#000000">Login Credentials</text>
    </g>
    <!-- D1 -->
    <g id="node10" class="node">
      <title>D1</title>
      <path fill="#d3d3d3" stroke="#000000" d="M2009.6053,-603.7273C2009.6053,-605.5331 1990.0707,-607 1966.0223,-607 1941.9739,-607 1922.4394,-605.5331 1922.4394,-603.7273 1922.4394,-603.7273 1922.4394,-574.2727 1922.4394,-574.2727 1922.4394,-572.4669 1941.9739,-571 1966.0223,-571 1990.0707,-571 2009.6053,-572.4669 2009.6053,-574.2727 2009.6053,-574.2727 2009.6053,-603.7273 2009.6053,-603.7273"/>
      <path fill="none" stroke="#000000" d="M2009.6053,-603.7273C2009.6053,-601.9214 1990.0707,-600.4545 1966.0223,-600.4545 1941.9739,-600.4545 1922.4394,-601.9214 1922.4394,-603.7273"/>
      <text text-anchor="middle" x="1966.0223" y="-584.8" font-family="Helvetica,sans-Serif" font-size="14.00" fill="#000000">Student DB</text>
    </g>
    <!-- P1&#45;&gt;D1 -->
    <g id="edge2" class="edge">
      <title>P1-&gt;D1</title>
      <path fill="none" stroke="#000000" d="M1612.1776,-589C1707.481,-589 1839.0931,-589 1911.9721,-589"/>
      <polygon fill="#000000" stroke="#000000" points="1912.2873,-592.5001 1922.2873,-589 1912.2873,-585.5001 1912.2873,-592.5001"/>
      <text text-anchor="middle" x="1790.3813" y="-593.2" font-family="Times,serif" font-size="14.00" fill="#000000">Store / Update Student</text>
    </g>
    <!-- D2 -->
    <g id="node11" class="node">
      <title>D2</title>
      <path fill="#d3d3d3" stroke="#000000" d="M2008.4723,-217.7273C2008.4723,-219.5331 1989.4456,-221 1966.0223,-221 1942.5991,-221 1923.5723,-219.5331 1923.5723,-217.7273 1923.5723,-217.7273 1923.5723,-188.2727 1923.5723,-188.2727 1923.5723,-186.4669 1942.5991,-185 1966.0223,-185 1989.4456,-185 2008.4723,-186.4669 2008.4723,-188.2727 2008.4723,-188.2727 2008.4723,-217.7273 2008.4723,-217.7273"/>
      <path fill="none" stroke="#000000" d="M2008.4723,-217.7273C2008.4723,-215.9214 1989.4456,-214.4545 1966.0223,-214.4545 1942.5991,-214.4545 1923.5723,-215.9214 1923.5723,-217.7273"/>
      <text text-anchor="middle" x="1966.0223" y="-198.8" font-family="Helvetica,sans-Serif" font-size="14.00" fill="#000000">Course DB</text>
    </g>
    <!-- P2&#45;&gt;D2 -->
    <g id="edge5" class="edge">
      <title>P2-&gt;D2</title>
      <path fill="none" stroke="#000000" d="M1665.3078,-201.8177C1683.3803,-201.5645 1701.4998,-201.3493 1718.8532,-201.2 1782.4314,-200.6531 1798.3313,-200.6504 1861.9094,-201.2 1878.7509,-201.3456 1897.123,-201.6236 1913.6813,-201.9184"/>
      <polygon fill="#000000" stroke="#000000" points="1913.6642,-205.4185 1923.7268,-202.103 1913.7929,-198.4197 1913.6642,-205.4185"/>
      <text text-anchor="middle" x="1790.3813" y="-205.2" font-family="Times,serif" font-size="14.00" fill="#000000">Course Data</text>
    </g>
    <!-- D3 -->
    <g id="node12" class="node">
      <title>D3</title>
      <path fill="#d3d3d3" stroke="#000000" d="M2019.2484,-325.7273C2019.2484,-327.5331 1995.3916,-329 1966.0223,-329 1936.6531,-329 1912.7963,-327.5331 1912.7963,-325.7273 1912.7963,-325.7273 1912.7963,-296.2727 1912.7963,-296.2727 1912.7963,-294.4669 1936.6531,-293 1966.0223,-293 1995.3916,-293 2019.2484,-294.4669 2019.2484,-296.2727 2019.2484,-296.2727 2019.2484,-325.7273 2019.2484,-325.7273"/>
      <path fill="none" stroke="#000000" d="M2019.2484,-325.7273C2019.2484,-323.9214 1995.3916,-322.4545 1966.0223,-322.4545 1936.6531,-322.4545 1912.7963,-323.9214 1912.7963,-325.7273"/>
      <text text-anchor="middle" x="1966.0223" y="-306.8" font-family="Helvetica,sans-Serif" font-size="14.00" fill="#000000">Enrollment DB</text>
    </g>
    <!-- P2&#45;&gt;D3 -->
    <g id="edge4" class="edge">
      <title>P2-&gt;D3</title>
      <path fill="none" stroke="#000000" d="M1570.0869,-221.3302C1661.1038,-241.9433 1816.2122,-277.0716 1902.8058,-296.683"/>
      <polygon fill="#000000" stroke="#000000" points="1902.235,-300.1423 1912.7611,-298.9376 1903.7812,-293.3152 1902.235,-300.1423"/>
      <text text-anchor="middle" x="1790.3813" y="-289.2" font-family="Times,serif" font-size="14.00" fill="#000000">Enrollment Data</text>
    </g>
    <!-- D4 -->
    <g id="node13" class="node">
      <title>D4</title>
      <path fill="#d3d3d3" stroke="#000000" d="M846.8743,-243.7273C846.8743,-245.5331 822.1564,-247 791.727,-247 761.2976,-247 736.5797,-245.5331 736.5797,-243.7273 736.5797,-243.7273 736.5797,-214.2727 736.5797,-214.2727 736.5797,-212.4669 761.2976,-211 791.727,-211 822.1564,-211 846.8743,-212.4669 846.8743,-214.2727 846.8743,-214.2727 846.8743,-243.7273 846.8743,-243.7273"/>
      <path fill="none" stroke="#000000" d="M846.8743,-243.7273C846.8743,-241.9214 822.1564,-240.4545 791.727,-240.4545 761.2976,-240.4545 736.5797,-241.9214 736.5797,-243.7273"/>
      <text text-anchor="middle" x="791.727" y="-224.8" font-family="Helvetica,sans-Serif" font-size="14.00" fill="#000000">Attendance DB</text>
    </g>
    <!-- P3&#45;&gt;D4 -->
    <g id="edge7" class="edge">
      <title>P3-&gt;D4</title>
      <path fill="none" stroke="#000000" d="M517.4206,-229C587.1665,-229 670.1384,-229 726.4274,-229"/>
      <polygon fill="#000000" stroke="#000000" points="726.6181,-232.5001 736.6181,-229 726.618,-225.5001 726.6181,-232.5001"/>
      <text text-anchor="middle" x="629.0948" y="-233.2" font-family="Times,serif" font-size="14.00" fill="#000000">Attendance Records</text>
    </g>
    <!-- D5 -->
    <g id="node14" class="node">
      <title>D5</title>
      <path fill="#d3d3d3" stroke="#000000" d="M829.3407,-351.7273C829.3407,-353.5331 812.4817,-355 791.727,-355 770.9724,-355 754.1134,-353.5331 754.1134,-351.7273 754.1134,-351.7273 754.1134,-322.2727 754.1134,-322.2727 754.1134,-320.4669 770.9724,-319 791.727,-319 812.4817,-319 829.3407,-320.4669 829.3407,-322.2727 829.3407,-322.2727 829.3407,-351.7273 829.3407,-351.7273"/>
      <path fill="none" stroke="#000000" d="M829.3407,-351.7273C829.3407,-349.9214 812.4817,-348.4545 791.727,-348.4545 770.9724,-348.4545 754.1134,-349.9214 754.1134,-351.7273"/>
      <text text-anchor="middle" x="791.727" y="-332.8" font-family="Helvetica,sans-Serif" font-size="14.00" fill="#000000">Exam DB</text>
    </g>
    <!-- P4&#45;&gt;D5 -->
    <g id="edge9" class="edge">
      <title>P4-&gt;D5</title>
      <path fill="none" stroke="#000000" d="M521.6134,-337C598.2383,-337 689.6472,-337 744.0686,-337"/>
      <polygon fill="#000000" stroke="#000000" points="744.1161,-340.5001 754.1161,-337 744.116,-333.5001 744.1161,-340.5001"/>
      <text text-anchor="middle" x="629.0948" y="-341.2" font-family="Times,serif" font-size="14.00" fill="#000000">Exam Results</text>
    </g>
    <!-- D6 -->
    <g id="node15" class="node">
      <title>D6</title>
      <path fill="#d3d3d3" stroke="#000000" d="M1997.9756,-465.7273C1997.9756,-467.5331 1983.6536,-469 1966.0223,-469 1948.3911,-469 1934.0691,-467.5331 1934.0691,-465.7273 1934.0691,-465.7273 1934.0691,-436.2727 1934.0691,-436.2727 1934.0691,-434.4669 1948.3911,-433 1966.0223,-433 1983.6536,-433 1997.9756,-434.4669 1997.9756,-436.2727 1997.9756,-436.2727 1997.9756,-465.7273 1997.9756,-465.7273"/>
      <path fill="none" stroke="#000000" d="M1997.9756,-465.7273C1997.9756,-463.9214 1983.6536,-462.4545 1966.0223,-462.4545 1948.3911,-462.4545 1934.0691,-463.9214 1934.0691,-465.7273"/>
      <text text-anchor="middle" x="1966.0223" y="-446.8" font-family="Helvetica,sans-Serif" font-size="14.00" fill="#000000">Fee DB</text>
    </g>
    <!-- P5&#45;&gt;D6 -->
    <g id="edge11" class="edge">
      <title>P5-&gt;D6</title>
      <path fill="none" stroke="#000000" d="M1628.6679,-472.6234C1728.0214,-466.2551 1858.468,-457.8939 1924.2461,-453.6777"/>
      <polygon fill="#000000" stroke="#000000" points="1924.4776,-457.1702 1934.2332,-453.0376 1924.0298,-450.1845 1924.4776,-457.1702"/>
      <text text-anchor="middle" x="1790.3813" y="-470.2" font-family="Times,serif" font-size="14.00" fill="#000000">Fee Records</text>
    </g>
    <!-- D7 -->
    <g id="node16" class="node">
      <title>D7</title>
      <path fill="#d3d3d3" stroke="#000000" d="M2000.406,-109.7273C2000.406,-111.5331 1984.9947,-113 1966.0223,-113 1947.05,-113 1931.6386,-111.5331 1931.6386,-109.7273 1931.6386,-109.7273 1931.6386,-80.2727 1931.6386,-80.2727 1931.6386,-78.4669 1947.05,-77 1966.0223,-77 1984.9947,-77 2000.406,-78.4669 2000.406,-80.2727 2000.406,-80.2727 2000.406,-109.7273 2000.406,-109.7273"/>
      <path fill="none" stroke="#000000" d="M2000.406,-109.7273C2000.406,-107.9214 1984.9947,-106.4545 1966.0223,-106.4545 1947.05,-106.4545 1931.6386,-107.9214 1931.6386,-109.7273"/>
      <text text-anchor="middle" x="1966.0223" y="-90.8" font-family="Helvetica,sans-Serif" font-size="14.00" fill="#000000">User DB</text>
    </g>
    <!-- P6&#45;&gt;D7 -->
    <g id="edge15" class="edge">
      <title>P6-&gt;D7</title>
      <path fill="none" stroke="#000000" d="M1604.187,-95C1704.1864,-95 1849.1012,-95 1921.441,-95"/>
      <polygon fill="#000000" stroke="#000000" points="1921.5736,-98.5001 1931.5735,-95 1921.5735,-91.5001 1921.5736,-98.5001"/>
      <text text-anchor="middle" x="1790.3813" y="-99.2" font-family="Times,serif" font-size="14.00" fill="#000000">User Authentication Data</text>
    </g>
    <!-- D4&#45;&gt;Student -->
    <g id="edge17" class="edge">
      <title>D4-&gt;Student</title>
      <path fill="none" stroke="#000000" d="M842.3493,-245.9465C884.5561,-260.2925 946.1481,-281.7317 999.2698,-302.2 1012.8968,-307.4506 1027.6378,-313.4989 1040.8686,-319.0651"/>
      <polygon fill="#000000" stroke="#000000" points="1039.625,-322.3393 1050.1983,-323.0147 1042.3539,-315.8931 1039.625,-322.3393"/>
      <text text-anchor="middle" x="948.5352" y="-306.2" font-family="Times,serif" font-size="14.00" fill="#000000">Attendance Status</text>
    </g>
    <!-- D5&#45;&gt;Student -->
    <g id="edge16" class="edge">
      <title>D5-&gt;Student</title>
      <path fill="none" stroke="#000000" d="M829.4287,-337C883.6565,-337 983.368,-337 1040.0597,-337"/>
      <polygon fill="#000000" stroke="#000000" points="1040.124,-340.5001 1050.1239,-337 1040.1239,-333.5001 1040.124,-340.5001"/>
      <text text-anchor="middle" x="948.5352" y="-341.2" font-family="Times,serif" font-size="14.00" fill="#000000">Results</text>
    </g>
    <!-- D6&#45;&gt;Student -->
    <g id="edge18" class="edge">
      <title>D6-&gt;Student</title>
      <path fill="none" stroke="#000000" d="M1934.2662,-446.5314C1879.7864,-438.8928 1764.9889,-422.9178 1667.8532,-410.2 1464.5114,-383.5768 1221.1478,-353.8256 1124.7252,-342.1218"/>
      <polygon fill="#000000" stroke="#000000" points="1125.1281,-338.6451 1114.7794,-340.9153 1124.2851,-345.5941 1125.1281,-338.6451"/>
      <text text-anchor="middle" x="1497.9812" y="-414.2" font-family="Times,serif" font-size="14.00" fill="#000000">Fee Status</text>
    </g>
  </g>
</svg>
